<svg xmlns="http://www.w3.org/2000/svg" width="20" height="20" viewBox="0 0 20 20">
  <g id="Groupe_101" data-name="Groupe 101" transform="translate(5437.5 2500)">
    <rect id="Rectangle_121" data-name="Rectangle 121" width="20" height="20" transform="translate(-5437.5 -2500)" fill="#fff" opacity="0"/>
    <path id="Union_2" data-name="Union 2" d="M3.538,18.123l-.013-.006a4.667,4.667,0,0,1-1.576-1.081c-.067-.075-.123-.142-.172-.2s-.088-.117-.122-.166c-.047-.072-.076-.128-.1-.161a4.11,4.11,0,0,1-.4-1.96A5.753,5.753,0,0,1,2.39,11.281a6.277,6.277,0,0,1,.713-.786,4.041,4.041,0,0,0,.953,1.9,4.15,4.15,0,0,0,1.414,1A4.422,4.422,0,0,0,6.6,13.7a4.842,4.842,0,0,0,1.464-.023h0a4.876,4.876,0,0,0,.643-.123c.219-.053.379-.1.444-.123h0c.109-.034.164-.053.193-.065l.723-.316a4.606,4.606,0,0,1-5.023-1.237,4.269,4.269,0,0,1-.88-2.893l.292-3.461A2.61,2.61,0,0,1,6.245,3.2a2.451,2.451,0,0,1,.595-.126c.078-.005.485-.038,1.03-.11.166-.022.357-.054.6-.108a5.116,5.116,0,0,0,1.008-.315c.709-.313.7-.586,1.078-.654a1.8,1.8,0,0,1,1.051.15,4.9,4.9,0,0,1,1.47,1.146c.054.058.1.113.155.166s.109.124.16.18a6.9,6.9,0,0,1,.884,1.24,7.1,7.1,0,0,1,2.617-.458c.179.006.353.019.522.041.084.01.166.024.248.04a4.461,4.461,0,0,1,.471.11,3.628,3.628,0,0,1,.43.16,3.151,3.151,0,0,1,.522.291,2.5,2.5,0,0,1,.3.239,2.24,2.24,0,0,1,.355.421A2.443,2.443,0,0,1,20.1,6.638a2.806,2.806,0,0,1-.038.9,11.614,11.614,0,0,1-.412,1.526,12.771,12.771,0,0,1-3.562,5.276,16.7,16.7,0,0,1-2.17,1.649,19.371,19.371,0,0,1-3.366,1.778,11.61,11.61,0,0,1-4.231.91A6.873,6.873,0,0,1,3.538,18.123Z" transform="translate(-5438 -2501)" fill="#fff"/>
  </g>
</svg>
